<svg width="372" height="257" viewBox="0 0 372 257" fill="none" xmlns="http://www.w3.org/2000/svg">
<g clip-path="url(#clip0_1_2)">
<mask id="mask0_1_2" style="mask-type:luminance" maskUnits="userSpaceOnUse" x="0" y="0" width="372" height="257">
<path d="M371.74 0H0V256.73H371.74V0Z" fill="white"/>
</mask>
<g mask="url(#mask0_1_2)">
<path d="M158.86 102.6V100.6L135.45 87.08V116.11L158.86 102.6Z" fill="#CD0B2A"/>
<path d="M160.59 16.53L158.84 15.52L135.45 29.03L160.59 43.54V16.53Z" fill="#EC6664"/>
<path d="M110.32 101.6L135.45 87.08L110.32 72.57V101.6Z" fill="#EC6664"/>
<path d="M135.45 87.08L156.62 74.86C156.23 74.18 155.99 73.41 155.99 72.57C155.99 71.73 156.23 70.96 156.62 70.28L135.46 58.06V87.08H135.45Z" fill="#EC6664"/>
<path d="M156.62 74.87L135.46 87.09L158.85 100.6V76.8C157.91 76.41 157.12 75.75 156.61 74.88L156.62 74.87Z" fill="#E52D1E"/>
<path d="M135.45 116.11V87.08L110.32 101.6L135.45 116.11Z" fill="#E52D1E"/>
<path d="M178.96 59.95C178.78 59.35 178.68 58.72 178.68 58.06C178.68 56.78 179.05 55.59 179.65 54.55L160.59 43.54V67.97C161.64 67.97 162.58 68.36 163.35 68.96L178.96 59.95Z" fill="#E52D1E"/>
<path d="M135.45 29.03V58.06L160.59 43.54L135.45 29.03Z" fill="#E52D1E"/>
<path d="M135.45 58.06L156.61 70.28C157.41 68.91 158.87 67.97 160.57 67.97V43.54L135.43 58.05L135.45 58.06Z" fill="#CD0B2A"/>
<path d="M213.69 68.99L234.33 57.07L210.88 43.53V67.96C211.95 67.96 212.91 68.36 213.69 68.98V68.99Z" fill="#CD0B2A"/>
<path d="M210.88 43.54L236.01 29.03L210.88 14.51V43.54Z" fill="#E52D1E"/>
<path d="M210.89 43.54L234.33 57.08L236.02 56.1V29.03L210.89 43.54Z" fill="#EC6664"/>
<path d="M192.76 58.06C192.76 58.72 192.66 59.35 192.48 59.95L208.1 68.97C208.87 68.37 209.81 67.98 210.87 67.98V43.55L191.79 54.57C192.39 55.6 192.75 56.79 192.75 58.07L192.76 58.06Z" fill="#EC6664"/>
<path d="M210.88 77.17V101.59L236 87.09L214.85 74.88C214.05 76.25 212.59 77.18 210.89 77.18L210.88 77.17Z" fill="#CD0B2A"/>
<path d="M215.47 72.57C215.47 73.41 215.23 74.19 214.83 74.87L235.99 87.09V60.15L215.39 72.04C215.41 72.22 215.47 72.39 215.47 72.57Z" fill="#EC6664"/>
<path d="M185.72 65.1C183.75 65.1 181.98 64.28 180.71 62.97L165.1 71.99C165.13 72.19 165.18 72.38 165.18 72.58C165.18 73.42 164.94 74.19 164.55 74.87L185.72 87.09V65.1Z" fill="#EC6664"/>
<path d="M185.72 87.08V116.11L210.86 101.6L210.85 101.59L185.72 87.08Z" fill="#EC6664"/>
<path d="M164.55 74.86C164.05 75.72 163.27 76.38 162.35 76.77V100.58L185.72 87.09L164.55 74.87V74.86Z" fill="#E52D1E"/>
<path d="M206.91 74.85C206.52 74.18 206.28 73.4 206.28 72.57C206.28 72.37 206.33 72.18 206.36 71.99L190.73 62.97C189.46 64.28 187.69 65.1 185.72 65.1V87.09L206.91 74.86V74.85Z" fill="#CD0B2A"/>
<path d="M206.91 74.86L185.73 87.09L210.85 101.59H210.86L210.87 101.6V77.17C209.17 77.17 207.7 76.23 206.91 74.86Z" fill="#E52D1E"/>
<path d="M162.35 100.58V102.62L185.72 116.11V87.08L162.35 100.58Z" fill="#CD0B2A"/>
<path d="M181.76 31.32C181.37 30.64 181.13 29.87 181.13 29.03C181.13 28.82 181.19 28.64 181.21 28.44L160.59 16.54V43.55L181.76 31.33V31.32Z" fill="#CD0B2A"/>
<path d="M160.6 43.54L179.66 54.54C180.6 52.92 182.14 51.72 184 51.25V33.24C183.07 32.85 182.27 32.19 181.77 31.32L160.61 43.54H160.6Z" fill="#EC6664"/>
<path d="M189.69 26.75C190.08 27.42 190.32 28.2 190.32 29.03C190.32 29.86 190.08 30.64 189.69 31.31L210.88 43.54V14.51L189.69 26.74V26.75Z" fill="#CD0B2A"/>
<path d="M187.48 33.23V51.27C189.33 51.75 190.86 52.95 191.8 54.56L210.88 43.54L189.69 31.31C189.19 32.18 188.4 32.83 187.48 33.23Z" fill="#E52D1E"/>
<path d="M185.72 24.43C185.72 24.43 185.73 24.43 185.74 24.43V0L162.34 13.51L182.96 25.41C183.73 24.81 184.67 24.43 185.72 24.43Z" fill="#CD0B2A"/>
<path d="M189.69 26.75L210.88 14.52L185.74 0V24.43C187.44 24.43 188.9 25.37 189.69 26.74V26.75Z" fill="#EC6664"/>
<path d="M32.3 152.83C29.75 151.53 25.52 150.24 19.63 148.97C17.25 148.47 15.74 147.94 15.1 147.36C14.44 146.8 14.12 146.18 14.12 145.48C14.12 144.53 14.52 143.72 15.31 143.05C16.1 142.38 17.29 142.05 18.85 142.05C20.76 142.05 22.25 142.5 23.33 143.39C24.41 144.28 25.12 145.71 25.46 147.68L38.18 146.94C37.62 142.41 35.88 139.11 32.95 137.04C30.02 134.96 25.77 133.93 20.19 133.93C15.64 133.93 12.06 134.5 9.45001 135.64C6.84001 136.78 4.88001 138.35 3.58001 140.35C2.28001 142.35 1.63001 144.47 1.63001 146.71C1.63001 150.13 2.90001 152.94 5.44001 155.14C7.96001 157.34 12.18 159.11 18.1 160.44C21.71 161.23 24.02 162.08 25.01 162.97C26 163.86 26.5 164.88 26.5 166.01C26.5 167.2 25.98 168.25 24.94 169.15C23.9 170.05 22.41 170.5 20.49 170.5C17.91 170.5 15.92 169.62 14.53 167.85C13.68 166.76 13.11 165.17 12.83 163.08L-0.00999451 163.88C0.370005 168.29 1.99001 171.92 4.84001 174.78C7.69001 177.64 12.84 179.07 20.27 179.07C24.5 179.07 28 178.46 30.78 177.24C33.56 176.02 35.72 174.23 37.27 171.86C38.82 169.5 39.59 166.92 39.59 164.12C39.59 161.74 39.01 159.58 37.85 157.66C36.69 155.73 34.83 154.12 32.28 152.82L32.3 152.83Z" fill="white"/>
<path d="M58.31 134.67H44.79V178.34H58.31V134.67Z" fill="white"/>
<path d="M74.23 176.43C77.5 178.2 81.72 179.08 86.9 179.08C91.11 179.08 94.75 178.59 97.82 177.61C100.89 176.63 104.42 174.78 108.41 172.05V153.43H87.56V162.51H96.58V166.62C94.81 167.67 93.24 168.42 91.87 168.85C90.5 169.29 89.06 169.51 87.55 169.51C84.37 169.51 81.9 168.5 80.12 166.47C78.34 164.44 77.45 161.07 77.45 156.34C77.45 151.89 78.33 148.64 80.09 146.59C81.85 144.54 84.21 143.51 87.16 143.51C89.15 143.51 90.78 143.95 92.06 144.82C93.34 145.69 94.25 146.95 94.79 148.6L107.81 146.28C107.02 143.46 105.83 141.13 104.25 139.3C102.67 137.46 100.69 136.11 98.29 135.23C95.9 134.36 92.29 133.92 87.46 133.92C82.63 133.92 78.47 134.63 75.52 136.03C71.73 137.86 68.85 140.53 66.88 144.06C64.91 147.58 63.93 151.73 63.93 156.5C63.93 161.27 64.83 165.04 66.63 168.53C68.43 172.03 70.96 174.66 74.23 176.42V176.43Z" fill="white"/>
<path d="M156.52 163.15V134.68H143.8V158.84L127.36 134.68H114.76V178.35H127.45V154.37L143.8 178.35H146.7C147.5 171.91 151.23 166.39 156.52 163.16V163.15Z" fill="white"/>
<path d="M188.02 178.34H190.78V162.14H198.17C203.61 162.14 207.66 160.9 210.31 158.42C212.96 155.94 214.29 152.49 214.29 148.08C214.29 143.67 213.07 140.48 210.64 138.16C208.21 135.84 204.55 134.68 199.66 134.68H177.23V162.57C183.04 165.7 187.17 171.51 188.02 178.34ZM190.78 143.55H194.62C197.14 143.55 198.86 144.03 199.77 144.98C200.68 145.93 201.14 147.09 201.14 148.46C201.14 149.83 200.61 151.03 199.56 151.93C198.51 152.83 196.68 153.28 194.08 153.28H190.77V143.54L190.78 143.55Z" fill="white"/>
<path d="M231.96 160.62H233.15C234.38 160.62 235.48 160.96 236.46 161.63C237.17 162.15 237.99 163.27 238.9 165L246.11 178.34H261.36L254.83 165.69C254.51 165.05 253.88 164.15 252.94 162.98C252 161.81 251.28 161.04 250.78 160.68C250.05 160.14 248.87 159.61 247.27 159.07C249.28 158.61 250.86 158.04 252.01 157.34C253.82 156.25 255.24 154.82 256.27 153.07C257.3 151.31 257.82 149.22 257.82 146.8C257.82 144.02 257.14 141.66 255.79 139.73C254.44 137.79 252.66 136.47 250.46 135.75C248.26 135.03 245.07 134.68 240.9 134.68H218.41V178.35H231.96V160.63V160.62ZM231.96 143.49H237.89C240.35 143.49 242.03 143.87 242.92 144.62C243.81 145.37 244.26 146.46 244.26 147.87C244.26 148.82 243.98 149.67 243.41 150.4C242.84 151.13 242.11 151.59 241.22 151.77C239.45 152.17 238.26 152.37 237.65 152.37H231.96V143.49Z" fill="white"/>
<path d="M277.91 134.67H264.39V178.34H277.91V134.67Z" fill="white"/>
<path d="M314.46 158.83L298.02 134.67H285.42V178.34H298.11V154.36L314.46 178.34H327.18V134.67H314.46V158.83Z" fill="white"/>
<path d="M330.72 134.67V145.46H344.48V178.34H357.98V145.46H371.74V134.67H330.72Z" fill="white"/>
<path d="M23.09 187.32H2.03V228.34H14.76V213.12H21.7C26.81 213.12 30.61 211.95 33.1 209.62C35.59 207.29 36.84 204.05 36.84 199.91C36.84 195.77 35.7 192.78 33.41 190.59C31.13 188.41 27.69 187.32 23.1 187.32H23.09ZM23.01 203.53C22.02 204.38 20.31 204.8 17.86 204.8H14.75V195.65H18.36C20.73 195.65 22.34 196.1 23.2 196.99C24.06 197.88 24.49 198.98 24.49 200.26C24.49 201.54 24 202.67 23.01 203.52V203.53Z" fill="white"/>
<path d="M73.21 213.91C72.32 212.81 71.65 212.09 71.18 211.75C70.49 211.25 69.39 210.74 67.88 210.24C69.76 209.81 71.25 209.27 72.33 208.62C74.03 207.59 75.36 206.26 76.33 204.6C77.3 202.95 77.79 200.99 77.79 198.71C77.79 196.1 77.16 193.88 75.89 192.07C74.62 190.25 72.95 189.01 70.88 188.33C68.81 187.66 65.82 187.32 61.9 187.32H40.78V228.34H53.51V211.69H54.63C55.79 211.69 56.82 212.01 57.74 212.64C58.41 213.13 59.18 214.18 60.03 215.8L66.8 228.33H81.12L74.98 216.44C74.68 215.84 74.09 214.99 73.2 213.89L73.21 213.91ZM64.27 202.1C63.74 202.79 63.05 203.22 62.21 203.39C60.55 203.76 59.43 203.95 58.85 203.95H53.51V195.61H59.08C61.39 195.61 62.97 195.96 63.81 196.67C64.65 197.38 65.07 198.4 65.07 199.72C65.07 200.62 64.8 201.41 64.27 202.1Z" fill="white"/>
<path d="M102.35 186.62C95.69 186.62 90.5 188.49 86.77 192.22C83.04 195.95 81.17 201.16 81.17 207.86C81.17 212.65 82.11 216.65 84 219.83C85.88 223.02 88.34 225.35 91.37 226.83C94.4 228.3 98.23 229.04 102.85 229.04C107.47 229.04 111.2 228.19 114.25 226.48C117.3 224.77 119.63 222.39 121.24 219.32C122.85 216.25 123.66 212.32 123.66 207.53C123.66 200.93 121.81 195.79 118.12 192.13C114.43 188.47 109.17 186.63 102.34 186.63L102.35 186.62ZM108.76 216.89C107.27 218.66 105.16 219.55 102.44 219.55C99.72 219.55 97.7 218.65 96.16 216.84C94.62 215.03 93.85 212.05 93.85 207.91C93.85 203.77 94.62 200.74 96.17 198.93C97.72 197.12 99.77 196.22 102.33 196.22C104.89 196.22 107.11 197.11 108.67 198.89C110.23 200.67 111.01 203.49 111.01 207.35C111.01 211.94 110.26 215.12 108.77 216.89H108.76Z" fill="white"/>
<path d="M167.36 201.75C166.37 201.75 165.4 201.66 164.44 201.52V228.33H174.82V200.34C172.5 201.23 169.99 201.74 167.36 201.74V201.75Z" fill="white"/>
<path d="M151.78 212.28L145.35 187.32H128.68V228.34H139.06V197.06L147.04 228.34H156.44L163.34 201.36C160.44 200.79 157.77 199.62 155.43 197.99L151.78 212.28Z" fill="white"/>
<path d="M200.89 186.62C194.23 186.62 189.04 188.49 185.31 192.22C181.58 195.95 179.71 201.16 179.71 207.86C179.71 212.65 180.65 216.65 182.54 219.83C184.43 223.01 186.88 225.35 189.91 226.83C192.94 228.31 196.77 229.04 201.4 229.04C206.03 229.04 209.75 228.19 212.8 226.48C215.85 224.77 218.18 222.39 219.8 219.32C221.41 216.25 222.22 212.32 222.22 207.53C222.22 200.93 220.37 195.79 216.68 192.13C212.99 188.47 207.73 186.63 200.9 186.63L200.89 186.62ZM207.3 216.89C205.81 218.66 203.7 219.55 200.98 219.55C198.26 219.55 196.24 218.65 194.7 216.84C193.16 215.03 192.39 212.05 192.39 207.91C192.39 203.77 193.16 200.74 194.71 198.93C196.26 197.12 198.31 196.22 200.87 196.22C203.43 196.22 205.65 197.11 207.21 198.89C208.77 200.67 209.55 203.49 209.55 207.35C209.55 211.94 208.8 215.12 207.31 216.89H207.3Z" fill="white"/>
<path d="M224.07 197.45H237V228.34H249.67V197.45H262.6V187.32H224.07V197.45Z" fill="white"/>
<path d="M278.99 187.32H266.29V228.34H278.99V187.32Z" fill="white"/>
<path d="M305.5 186.62C298.84 186.62 293.65 188.49 289.92 192.22C286.19 195.95 284.32 201.16 284.32 207.86C284.32 212.65 285.26 216.65 287.15 219.83C289.04 223.01 291.49 225.35 294.52 226.83C297.55 228.31 301.38 229.04 306.01 229.04C310.64 229.04 314.36 228.19 317.41 226.48C320.46 224.77 322.79 222.39 324.41 219.32C326.02 216.25 326.83 212.32 326.83 207.53C326.83 200.93 324.98 195.79 321.29 192.13C317.6 188.47 312.34 186.63 305.51 186.63L305.5 186.62ZM311.91 216.89C310.42 218.66 308.31 219.55 305.59 219.55C302.87 219.55 300.85 218.65 299.31 216.84C297.77 215.03 297 212.05 297 207.91C297 203.77 297.77 200.74 299.32 198.93C300.87 197.12 302.92 196.22 305.48 196.22C308.04 196.22 310.26 197.11 311.82 198.89C313.38 200.67 314.16 203.49 314.16 207.35C314.16 211.94 313.41 215.12 311.92 216.89H311.91Z" fill="white"/>
<path d="M359.21 210.01L343.77 187.32H331.93V228.34H343.85V205.82L359.21 228.34H371.16V187.32H359.21V210.01Z" fill="white"/>
<path d="M173.33 180.51L177.83 181.51C177.59 182.34 177.37 183.01 177.15 183.51C176.93 184.01 176.63 184.6 176.23 185.28L178.4 186.77C178.66 186.94 179 187.14 179.42 187.38L176.32 190.95C175.75 190.65 175.17 190.3 174.56 189.9C173.95 189.5 173.41 189.16 172.92 188.88C171.92 189.54 170.92 190.02 169.92 190.32C168.53 190.74 166.96 190.94 165.19 190.94C162.42 190.94 160.37 190.36 159.02 189.21C157.67 188.06 157 186.66 157 185.02C157 183.84 157.4 182.72 158.19 181.67C158.98 180.62 160.28 179.73 162.08 179C161.33 178.08 160.81 177.29 160.52 176.61C160.23 175.93 160.1 175.25 160.1 174.55C160.1 173.08 160.66 171.86 161.79 170.91C162.91 169.96 164.62 169.48 166.9 169.48C169.18 169.48 170.94 169.93 172.04 170.84C173.13 171.75 173.68 172.83 173.68 174.1C173.68 174.81 173.51 175.49 173.18 176.14C172.85 176.79 172.44 177.32 171.97 177.73C171.5 178.14 170.65 178.74 169.44 179.54C170.45 180.55 171.5 181.49 172.6 182.36C172.89 181.78 173.14 181.16 173.35 180.51H173.33ZM164.65 181.91C163.86 182.47 163.33 182.94 163.07 183.34C162.81 183.74 162.68 184.16 162.68 184.6C162.68 185.29 162.98 185.9 163.57 186.44C164.16 186.98 164.94 187.25 165.89 187.25C166.92 187.25 168.08 186.85 169.36 186.05C168.13 185.11 166.56 183.73 164.64 181.92L164.65 181.91ZM166.7 176.87C167.45 176.46 168.02 176.02 168.43 175.55C168.84 175.07 169.04 174.62 169.04 174.2C169.04 173.78 168.87 173.38 168.53 173.08C168.19 172.78 167.72 172.62 167.13 172.62C166.54 172.62 166.07 172.79 165.7 173.13C165.33 173.47 165.15 173.87 165.15 174.33C165.15 174.91 165.67 175.76 166.71 176.88L166.7 176.87Z" fill="white"/>
<path d="M99.29 256.18V239.66H99.65L110.64 252.32V239.66H112.27V256.18H111.9L101 243.67V256.18H99.29Z" fill="white"/>
<path d="M124.18 239.24C126.68 239.24 128.78 240.07 130.46 241.74C132.15 243.41 132.99 245.47 132.99 247.91C132.99 250.35 132.15 252.38 130.47 254.06C128.79 255.74 126.74 256.59 124.32 256.59C121.9 256.59 119.8 255.75 118.12 254.07C116.43 252.39 115.59 250.36 115.59 247.98C115.59 246.39 115.97 244.92 116.74 243.57C117.51 242.21 118.56 241.15 119.88 240.39C121.2 239.63 122.64 239.24 124.18 239.24ZM124.25 240.85C123.03 240.85 121.87 241.17 120.77 241.81C119.67 242.45 118.82 243.31 118.2 244.38C117.59 245.46 117.28 246.66 117.28 247.99C117.28 249.95 117.96 251.61 119.32 252.96C120.68 254.31 122.32 254.99 124.24 254.99C125.52 254.99 126.71 254.68 127.8 254.06C128.89 253.44 129.74 252.59 130.35 251.51C130.96 250.43 131.27 249.23 131.27 247.91C131.27 246.59 130.96 245.41 130.35 244.35C129.74 243.29 128.88 242.44 127.77 241.8C126.66 241.16 125.48 240.84 124.24 240.84L124.25 240.85Z" fill="white"/>
<path d="M136.39 239.66H139.68C141.51 239.66 142.76 239.73 143.41 239.88C144.39 240.1 145.19 240.59 145.8 241.32C146.41 242.06 146.72 242.97 146.72 244.05C146.72 244.95 146.51 245.74 146.09 246.42C145.67 247.1 145.06 247.62 144.28 247.97C143.49 248.32 142.41 248.5 141.02 248.5L146.96 256.17H144.92L138.98 248.5H138.05V256.17H136.4V239.65L136.39 239.66ZM138.04 241.28V246.9L140.89 246.92C141.99 246.92 142.81 246.81 143.34 246.61C143.87 246.4 144.28 246.07 144.58 245.6C144.88 245.14 145.02 244.63 145.02 244.06C145.02 243.49 144.87 243 144.57 242.55C144.27 242.1 143.88 241.77 143.39 241.58C142.9 241.39 142.09 241.29 140.96 241.29H138.05L138.04 241.28Z" fill="white"/>
<path d="M148.76 239.66H150.46L153.84 251.56L158.58 239.66H158.92L163.6 251.56L167.03 239.66H168.71L163.96 256.18H163.65L158.75 243.68L153.75 256.18H153.44L148.76 239.66Z" fill="white"/>
<path d="M176.87 239.66L184.57 256.18H182.79L180.19 250.74H173.07L170.5 256.18H168.66L176.46 239.66H176.86H176.87ZM176.66 243.17L173.83 249.15H179.48L176.66 243.17Z" fill="white"/>
<path d="M183.69 239.66H185.59L189.82 246.47L193.98 239.66H195.89L190.66 248.28V256.17H189.03V248.28L183.7 239.66H183.69Z" fill="white"/>
<path d="M205.52 244.96H203.94C203.98 243.33 204.53 241.99 205.57 240.95C206.61 239.9 207.9 239.38 209.44 239.38C210.98 239.38 212.19 239.87 213.13 240.85C214.07 241.83 214.54 242.99 214.54 244.32C214.54 245.26 214.32 246.13 213.87 246.95C213.42 247.77 212.55 248.88 211.26 250.28L207.14 254.71H214.76V256.3H203.54L209.85 249.48C211.13 248.11 211.96 247.09 212.35 246.43C212.74 245.77 212.93 245.07 212.93 244.33C212.93 243.4 212.58 242.6 211.89 241.93C211.2 241.26 210.35 240.92 209.35 240.92C208.29 240.92 207.42 241.27 206.72 241.98C206.02 242.68 205.62 243.67 205.52 244.94V244.96Z" fill="white"/>
<path d="M216.61 248.06C216.61 245.88 216.84 244.2 217.31 243.01C217.78 241.82 218.44 240.92 219.29 240.3C220.14 239.68 221.1 239.38 222.15 239.38C223.2 239.38 224.19 239.69 225.06 240.31C225.93 240.93 226.62 241.85 227.12 243.09C227.63 244.33 227.88 245.98 227.88 248.07C227.88 250.16 227.63 251.79 227.13 253.02C226.63 254.25 225.95 255.17 225.07 255.8C224.19 256.42 223.22 256.74 222.15 256.74C221.08 256.74 220.14 256.44 219.3 255.83C218.45 255.22 217.79 254.32 217.32 253.12C216.84 251.92 216.61 250.24 216.61 248.07V248.06ZM218.17 248.09C218.17 249.96 218.34 251.37 218.67 252.32C219 253.28 219.5 254 220.15 254.49C220.8 254.99 221.49 255.23 222.22 255.23C222.95 255.23 223.64 254.99 224.27 254.51C224.91 254.03 225.39 253.3 225.72 252.34C226.13 251.16 226.34 249.75 226.34 248.09C226.34 246.43 226.16 245.06 225.79 244.01C225.42 242.95 224.92 242.17 224.27 241.68C223.62 241.19 222.94 240.94 222.22 240.94C221.5 240.94 220.8 241.19 220.15 241.68C219.51 242.17 219.02 242.89 218.68 243.85C218.34 244.81 218.17 246.22 218.17 248.09Z" fill="white"/>
<path d="M231.49 244.96H229.91C229.95 243.33 230.5 241.99 231.54 240.95C232.58 239.9 233.87 239.38 235.41 239.38C236.95 239.38 238.16 239.87 239.1 240.85C240.04 241.83 240.51 242.99 240.51 244.32C240.51 245.26 240.29 246.13 239.84 246.95C239.39 247.77 238.52 248.88 237.23 250.28L233.11 254.71H240.73V256.3H229.51L235.82 249.48C237.1 248.11 237.93 247.09 238.32 246.43C238.71 245.77 238.9 245.07 238.9 244.33C238.9 243.4 238.55 242.6 237.86 241.93C237.17 241.26 236.32 240.92 235.32 240.92C234.26 240.92 233.39 241.27 232.69 241.98C231.99 242.68 231.59 243.67 231.49 244.94V244.96Z" fill="white"/>
<path d="M244.59 243.62H242.91C243.22 242.26 243.8 241.21 244.67 240.48C245.54 239.75 246.56 239.38 247.75 239.38C248.61 239.38 249.41 239.58 250.16 239.97C250.91 240.36 251.48 240.89 251.89 241.56C252.3 242.23 252.5 242.92 252.5 243.65C252.5 245.07 251.79 246.2 250.38 247.03C251.17 247.35 251.83 247.82 252.33 248.44C253.05 249.32 253.41 250.3 253.41 251.38C253.41 252.32 253.16 253.21 252.67 254.06C252.18 254.91 251.5 255.57 250.65 256.03C249.8 256.49 248.84 256.73 247.79 256.73C246.37 256.73 245.18 256.32 244.23 255.5C243.28 254.68 242.66 253.48 242.37 251.89H243.99C244.27 252.96 244.68 253.74 245.21 254.22C245.89 254.83 246.76 255.13 247.82 255.13C249.02 255.13 249.98 254.77 250.71 254.05C251.44 253.33 251.8 252.49 251.8 251.52C251.8 250.88 251.62 250.27 251.26 249.71C250.9 249.15 250.41 248.73 249.8 248.44C249.19 248.16 248.24 247.98 246.96 247.91V246.39C247.72 246.39 248.41 246.26 249.03 245.99C249.65 245.72 250.1 245.39 250.38 244.97C250.66 244.56 250.8 244.11 250.8 243.62C250.8 242.9 250.51 242.28 249.94 241.76C249.37 241.24 248.64 240.97 247.77 240.97C247.06 240.97 246.44 241.17 245.93 241.57C245.42 241.97 244.97 242.65 244.62 243.61L244.59 243.62Z" fill="white"/>
</g>
</g>
<defs>
<clipPath id="clip0_1_2">
<rect width="372" height="257" fill="white"/>
</clipPath>
</defs>
</svg>
