<svg width="174" height="117" viewBox="0 0 174 117" fill="none" xmlns="http://www.w3.org/2000/svg">
<path d="M74.28 50.88V49.91L63 43.4V57.39L74.28 50.88Z" fill="#336734"/>
<path d="M75.11 22.41V9.38999L74.27 8.89999L62.99 15.41L75.11 22.41Z" fill="#77C585"/>
<path d="M50.88 50.4L63 43.4L50.88 36.4V50.39V50.4Z" fill="#77C585"/>
<path d="M63 43.4L73.2 37.51C73.01 37.18 72.89 36.81 72.89 36.4C72.89 35.99 73.01 35.62 73.2 35.3L63 29.41V43.4Z" fill="#77C585"/>
<path d="M73.2 37.51L63 43.4L74.28 49.91V38.43C73.83 38.24 73.45 37.92 73.2 37.51Z" fill="#329946"/>
<path d="M63 57.4V43.41L50.88 50.41L63 57.41V57.4Z" fill="#329946"/>
<path d="M83.97 30.32C83.89 30.03 83.84 29.73 83.84 29.41C83.84 28.79 84.02 28.22 84.31 27.72L75.12 22.41V34.19C75.63 34.19 76.08 34.38 76.45 34.67L83.97 30.33V30.32Z" fill="#329946"/>
<path d="M62.99 15.42V29.41L75.11 22.41L62.99 15.41V15.42Z" fill="#329946"/>
<path d="M62.99 29.41L73.19 35.3C73.57 34.64 74.28 34.19 75.1 34.19V22.41L62.98 29.41H62.99Z" fill="#336734"/>
<path d="M100.71 34.68L110.66 28.94L99.36 22.41V34.19C99.88 34.19 100.34 34.38 100.72 34.68H100.71Z" fill="#336734"/>
<path d="M99.36 22.41L111.48 15.41L99.36 8.41V22.4V22.41Z" fill="#329946"/>
<path d="M99.36 22.41L110.66 28.94L111.48 28.47V15.42L99.36 22.42V22.41Z" fill="#77C585"/>
<path d="M90.62 29.41C90.62 29.73 90.57 30.03 90.49 30.32L98.02 34.67C98.39 34.38 98.85 34.19 99.36 34.19V22.41L90.16 27.72C90.45 28.22 90.63 28.79 90.63 29.41H90.62Z" fill="#77C585"/>
<path d="M99.36 38.62V50.39L111.47 43.4L101.27 37.51C100.89 38.17 100.18 38.62 99.36 38.62Z" fill="#336734"/>
<path d="M101.57 36.41C101.57 36.82 101.45 37.19 101.26 37.52L111.46 43.41V30.42L101.53 36.15C101.54 36.24 101.57 36.32 101.57 36.41Z" fill="#77C585"/>
<path d="M87.23 32.8C86.28 32.8 85.43 32.4 84.81 31.77L77.28 36.12C77.29 36.22 77.32 36.31 77.32 36.41C77.32 36.81 77.2 37.19 77.02 37.51L87.23 43.4V32.8Z" fill="#77C585"/>
<path d="M87.23 43.4V57.39L99.35 50.39L87.24 43.4H87.23Z" fill="#77C585"/>
<path d="M77.02 37.51C76.78 37.93 76.4 38.24 75.96 38.43V49.91L87.23 43.4L77.02 37.51Z" fill="#329946"/>
<path d="M97.44 37.51C97.25 37.19 97.14 36.81 97.14 36.41C97.14 36.31 97.17 36.22 97.18 36.13L89.65 31.78C89.04 32.41 88.19 32.81 87.24 32.81V43.41L97.45 37.51H97.44Z" fill="#336734"/>
<path d="M97.44 37.51L87.23 43.4L99.34 50.39V38.61C98.52 38.61 97.81 38.16 97.43 37.5L97.44 37.51Z" fill="#329946"/>
<path d="M75.96 49.91V50.89L87.23 57.4V43.41L75.96 49.92V49.91Z" fill="#336734"/>
<path d="M85.32 16.52C85.13 16.19 85.01 15.82 85.01 15.42C85.01 15.32 85.04 15.23 85.05 15.13L75.11 9.39V22.41L85.32 16.52Z" fill="#336734"/>
<path d="M75.12 22.41L84.31 27.71C84.76 26.93 85.51 26.35 86.4 26.12V17.44C85.95 17.25 85.57 16.93 85.32 16.52L75.12 22.41Z" fill="#77C585"/>
<path d="M89.14 14.32C89.33 14.65 89.44 15.02 89.44 15.42C89.44 15.82 89.32 16.2 89.14 16.52L99.35 22.42V8.42L89.14 14.32Z" fill="#336734"/>
<path d="M88.08 17.44V26.14C88.97 26.37 89.71 26.95 90.16 27.73L99.36 22.42L89.15 16.52C88.91 16.94 88.53 17.25 88.08 17.44Z" fill="#329946"/>
<path d="M87.23 13.2V1.42L75.95 7.93L85.89 13.67C86.26 13.38 86.71 13.2 87.22 13.2H87.23Z" fill="#336734"/>
<path d="M89.14 14.32L99.35 8.42L87.23 1.42V13.2C88.05 13.2 88.75 13.65 89.14 14.32Z" fill="#77C585"/>
<path d="M89.77 101.62V94.06H91.34C92.47 94.06 93.29 94.15 93.8 94.33C94.53 94.59 95.11 95.03 95.52 95.67C95.93 96.3 96.14 97.06 96.14 97.94C96.14 98.7 95.98 99.36 95.65 99.94C95.32 100.52 94.9 100.94 94.37 101.21C93.85 101.48 93.11 101.62 92.17 101.62H89.76H89.77ZM90.5 100.91H91.37C92.42 100.91 93.14 100.85 93.54 100.71C94.11 100.53 94.56 100.19 94.88 99.71C95.21 99.23 95.37 98.64 95.37 97.95C95.37 97.22 95.19 96.6 94.84 96.08C94.49 95.56 93.99 95.21 93.36 95.02C92.89 94.88 92.11 94.8 91.02 94.8H90.49V100.91H90.5Z" fill="white"/>
<path d="M97.61 94.06H101.94V94.8H98.36V97.17H101.91V97.91H98.36V100.88H101.91V101.62H97.61V94.06Z" fill="white"/>
<path d="M103.25 101.62V94.06H103.41L108.44 99.86V94.06H109.19V101.62H109.02L104.03 95.89V101.62H103.25Z" fill="white"/>
<path d="M110.69 101.62L111.77 94.06H111.89L114.96 100.27L118 94.06H118.12L119.21 101.62H118.47L117.72 96.21L115.05 101.62H114.86L112.15 96.17L111.41 101.62H110.68H110.69Z" fill="white"/>
<path d="M123.8 94.06L127.33 101.62H126.51L125.32 99.13H122.06L120.88 101.62H120.04L123.61 94.06H123.79H123.8ZM123.7 95.67L122.4 98.41H124.99L123.7 95.67Z" fill="white"/>
<path d="M128.54 94.06H130.05C130.89 94.06 131.46 94.09 131.76 94.16C132.21 94.26 132.57 94.48 132.85 94.82C133.13 95.16 133.27 95.57 133.27 96.07C133.27 96.48 133.17 96.84 132.98 97.16C132.79 97.47 132.51 97.71 132.15 97.87C131.79 98.03 131.29 98.11 130.66 98.11L133.38 101.62H132.45L129.73 98.11H129.3V101.62H128.54V94.06ZM129.3 94.8V97.37H130.6C131.1 97.38 131.48 97.33 131.72 97.24C131.96 97.14 132.15 96.99 132.29 96.78C132.43 96.57 132.49 96.33 132.49 96.07C132.49 95.81 132.42 95.59 132.28 95.38C132.14 95.17 131.96 95.02 131.74 94.94C131.52 94.85 131.15 94.81 130.63 94.81H129.3V94.8Z" fill="white"/>
<path d="M134.89 94.06H135.66V96.9L138.68 94.06H139.7L136.07 97.45L139.98 101.62H138.97L135.66 98.1V101.62H134.89V94.06Z" fill="white"/>
<path d="M90.07 109.42H89.35C89.37 108.67 89.62 108.06 90.1 107.58C90.58 107.1 91.17 106.86 91.87 106.86C92.57 106.86 93.13 107.08 93.56 107.53C93.99 107.98 94.21 108.51 94.21 109.12C94.21 109.55 94.11 109.95 93.9 110.33C93.7 110.71 93.3 111.21 92.71 111.85L90.83 113.88H94.32V114.61H89.18L92.07 111.49C92.66 110.86 93.04 110.4 93.21 110.09C93.39 109.79 93.47 109.47 93.47 109.13C93.47 108.7 93.31 108.34 92.99 108.03C92.67 107.72 92.28 107.57 91.83 107.57C91.35 107.57 90.94 107.73 90.62 108.05C90.3 108.37 90.12 108.82 90.07 109.41V109.42Z" fill="white"/>
<path d="M95.02 110.84C95.02 109.84 95.13 109.07 95.34 108.53C95.55 107.98 95.86 107.57 96.25 107.29C96.64 107.01 97.08 106.87 97.56 106.87C98.04 106.87 98.49 107.01 98.89 107.29C99.29 107.57 99.6 108 99.83 108.56C100.06 109.13 100.18 109.88 100.18 110.84C100.18 111.8 100.07 112.54 99.84 113.11C99.61 113.68 99.3 114.1 98.9 114.38C98.5 114.66 98.05 114.81 97.56 114.81C97.07 114.81 96.64 114.67 96.25 114.39C95.86 114.11 95.56 113.7 95.34 113.15C95.12 112.6 95.01 111.83 95.01 110.84H95.02ZM95.73 110.85C95.73 111.7 95.81 112.35 95.96 112.79C96.11 113.23 96.34 113.56 96.64 113.79C96.94 114.02 97.25 114.13 97.59 114.13C97.93 114.13 98.24 114.02 98.53 113.8C98.82 113.58 99.04 113.25 99.19 112.8C99.38 112.26 99.47 111.61 99.47 110.85C99.47 110.09 99.39 109.47 99.22 108.98C99.05 108.49 98.82 108.14 98.52 107.91C98.22 107.69 97.91 107.57 97.58 107.57C97.25 107.57 96.93 107.68 96.63 107.91C96.34 108.13 96.11 108.47 95.96 108.9C95.81 109.33 95.73 109.98 95.73 110.84V110.85Z" fill="white"/>
<path d="M101.74 109.42H101.02C101.04 108.67 101.29 108.06 101.77 107.58C102.25 107.1 102.84 106.86 103.54 106.86C104.24 106.86 104.8 107.08 105.23 107.53C105.66 107.98 105.88 108.51 105.88 109.12C105.88 109.55 105.78 109.95 105.57 110.33C105.37 110.71 104.97 111.21 104.38 111.85L102.5 113.88H105.99V114.61H100.85L103.74 111.49C104.33 110.86 104.71 110.4 104.88 110.09C105.06 109.79 105.14 109.47 105.14 109.13C105.14 108.7 104.98 108.34 104.66 108.03C104.34 107.72 103.95 107.57 103.5 107.57C103.02 107.57 102.61 107.73 102.29 108.05C101.97 108.37 101.79 108.82 101.74 109.41V109.42Z" fill="white"/>
<path d="M107.57 109.42H106.85C106.87 108.67 107.12 108.06 107.6 107.58C108.08 107.1 108.67 106.86 109.37 106.86C110.07 106.86 110.63 107.08 111.06 107.53C111.49 107.98 111.71 108.51 111.71 109.12C111.71 109.55 111.61 109.95 111.4 110.33C111.2 110.71 110.8 111.21 110.21 111.85L108.33 113.88H111.82V114.61H106.68L109.57 111.49C110.16 110.86 110.54 110.4 110.71 110.09C110.89 109.79 110.97 109.47 110.97 109.13C110.97 108.7 110.81 108.34 110.49 108.03C110.17 107.72 109.78 107.57 109.33 107.57C108.85 107.57 108.44 107.73 108.12 108.05C107.8 108.37 107.62 108.82 107.57 109.41V109.42Z" fill="white"/>
<path d="M2.04 77.63L7.94 77.28C8.06 78.21 8.35 78.97 8.7 79.5C9.34 80.32 10.28 80.73 11.44 80.73C12.32 80.73 13.02 80.5 13.48 80.09C13.95 79.68 14.18 79.21 14.18 78.63C14.18 78.1 13.95 77.64 13.48 77.23C13.01 76.82 11.96 76.41 10.33 76.06C7.59 75.48 5.66 74.66 4.49 73.61C3.32 72.62 2.74 71.33 2.74 69.76C2.74 68.71 3.03 67.78 3.62 66.84C4.2 65.91 5.14 65.21 6.31 64.68C7.48 64.15 9.17 63.92 11.21 63.92C13.78 63.92 15.7 64.39 17.05 65.32C18.39 66.25 19.21 67.77 19.44 69.87L13.6 70.22C13.42 69.34 13.13 68.64 12.61 68.24C12.08 67.83 11.44 67.6 10.57 67.6C9.87 67.6 9.29 67.78 8.94 68.07C8.59 68.36 8.42 68.77 8.42 69.18C8.42 69.47 8.6 69.76 8.89 70.06C9.18 70.35 9.88 70.59 10.99 70.82C13.67 71.4 15.66 71.99 16.83 72.57C18 73.15 18.87 73.91 19.4 74.79C19.93 75.67 20.22 76.66 20.22 77.77C20.22 79.05 19.87 80.22 19.17 81.33C18.47 82.44 17.48 83.26 16.19 83.78C14.91 84.31 13.33 84.6 11.35 84.6C7.96 84.6 5.57 83.96 4.29 82.62C3.01 81.28 2.25 79.64 2.07 77.66L2.04 77.63Z" fill="white"/>
<path d="M23.17 64.2H29.36V84.28H23.17V64.2Z" fill="white"/>
<path d="M43.37 76.98V72.84H52.94V81.36C51.13 82.59 49.5 83.46 48.1 83.93C46.7 84.4 45.01 84.63 43.08 84.63C40.69 84.63 38.76 84.22 37.24 83.4C35.72 82.58 34.55 81.36 33.74 79.78C32.92 78.2 32.51 76.34 32.51 74.23C32.51 72.01 32.98 70.14 33.85 68.51C34.73 66.88 36.07 65.65 37.82 64.83C39.16 64.19 41.03 63.84 43.31 63.84C45.59 63.84 47.16 64.02 48.27 64.42C49.38 64.83 50.25 65.47 51.01 66.29C51.77 67.11 52.29 68.22 52.64 69.5L46.69 70.55C46.46 69.79 46.05 69.21 45.46 68.8C44.88 68.39 44.12 68.22 43.18 68.22C41.84 68.22 40.73 68.69 39.91 69.62C39.09 70.55 38.68 72.07 38.68 74.11C38.68 76.27 39.09 77.85 39.91 78.78C40.73 79.71 41.84 80.18 43.3 80.18C44 80.18 44.64 80.06 45.28 79.89C45.92 79.72 46.62 79.36 47.44 78.84V76.97H43.35L43.37 76.98Z" fill="white"/>
<path d="M102.97 84.63V64.55H113.3C115.23 64.55 116.69 64.73 117.68 65.02C118.67 65.31 119.49 65.95 120.13 66.83C120.77 67.71 121.06 68.81 121.06 70.1C121.06 71.21 120.83 72.2 120.36 72.96C119.89 73.78 119.25 74.42 118.38 74.94C117.85 75.23 117.1 75.52 116.22 75.76C116.98 75.99 117.5 76.23 117.85 76.52C118.08 76.7 118.43 77.05 118.84 77.57C119.25 78.1 119.54 78.5 119.72 78.8L122.7 84.64H115.7L112.37 78.51C111.96 77.69 111.55 77.23 111.26 76.99C110.79 76.7 110.33 76.52 109.74 76.52H109.21V84.63H102.96H102.97ZM109.22 72.72H111.85C112.14 72.72 112.67 72.6 113.49 72.43C113.9 72.37 114.25 72.14 114.48 71.79C114.71 71.44 114.89 71.09 114.89 70.62C114.89 69.98 114.66 69.45 114.25 69.1C113.84 68.75 113.08 68.57 111.91 68.57H109.17V72.71H109.23L109.22 72.72Z" fill="white"/>
<path d="M123.1 64.55H129.29V84.63H123.1V64.55Z" fill="white"/>
<path d="M131.74 64.55H137.52L145.05 75.64V64.55H150.89V84.63H145.05L137.58 73.6V84.63H131.74V64.55Z" fill="white"/>
<path d="M152.4 64.55H171.25V69.51H164.95V84.63H158.76V69.51H152.46V64.55H152.4Z" fill="white"/>
<path d="M3.15 94.32H13.43C15.65 94.32 17.34 94.85 18.45 95.9C19.56 96.95 20.14 98.47 20.14 100.45C20.14 102.43 19.56 104.07 18.33 105.18C17.1 106.29 15.24 106.87 12.73 106.87H9.34V114.34H3.09V94.32H3.15ZM9.34 102.84H10.86C12.03 102.84 12.9 102.61 13.37 102.2C13.84 101.79 14.07 101.27 14.07 100.62C14.07 99.97 13.84 99.45 13.43 99.04C13.02 98.63 12.2 98.4 11.04 98.4H9.29V102.84H9.35H9.34Z" fill="white"/>
<path d="M33.04 111.01H25.98L24.99 114.34H18.69L26.22 94.32H32.99L40.52 114.4H34.04L33.05 111.01H33.04ZM31.76 106.69L29.54 99.45L27.32 106.69H31.76Z" fill="white"/>
<path d="M54.11 106.11L59.54 107.74C59.19 109.26 58.61 110.54 57.79 111.53C56.97 112.52 56.04 113.34 54.87 113.87C53.7 114.39 52.24 114.63 50.43 114.63C48.27 114.63 46.46 114.34 45.06 113.7C43.66 113.06 42.49 111.95 41.5 110.37C40.51 108.79 39.98 106.75 39.98 104.24C39.98 100.91 40.86 98.34 42.61 96.59C44.36 94.84 46.87 93.9 50.08 93.9C52.59 93.9 54.58 94.43 56.03 95.42C57.49 96.41 58.54 97.99 59.24 100.15L53.75 101.38C53.57 100.8 53.34 100.33 53.17 100.04C52.82 99.57 52.41 99.22 51.89 98.93C51.36 98.64 50.84 98.52 50.2 98.52C48.8 98.52 47.75 99.1 46.99 100.21C46.41 101.03 46.11 102.37 46.11 104.18C46.11 106.4 46.46 107.92 47.1 108.73C47.8 109.55 48.73 109.96 49.96 109.96C51.19 109.96 52.06 109.61 52.64 108.97C53.22 108.33 53.87 107.39 54.1 106.11H54.11Z" fill="white"/>
<path d="M78.45 98.06C76.41 97.65 74.54 96.54 73.2 95.08L67.36 101.85V94.26H61.17V114.34H67.36V109.44L70.57 106.11L74.77 114.34H82.42L74.77 101.85L78.45 98.06Z" fill="white"/>
<path d="M75.59 79.44V64.21H69.75V75.3L62.22 64.21H56.44V84.29H62.28V73.26L69.81 84.29H71.33C72.15 82.19 73.67 80.55 75.59 79.45V79.44Z" fill="white"/>
<path d="M100.4 66.19C99.29 65.14 97.6 64.61 95.38 64.61H85.11V79.2C87.33 80.31 89.08 82.29 90.01 84.63H91.35V77.22H94.74C97.25 77.22 99.12 76.64 100.34 75.53C101.57 74.42 102.15 72.79 102.15 70.8C102.09 68.76 101.51 67.24 100.4 66.19ZM95.32 72.49C94.85 72.9 93.98 73.13 92.81 73.13H91.29V68.64H93.04C94.21 68.64 94.97 68.87 95.43 69.28C95.89 69.69 96.07 70.27 96.07 70.86C96.07 71.56 95.84 72.09 95.31 72.49H95.32Z" fill="white"/>
<path d="M82.65 88.07L84.28 88.54C84.22 88.95 84.1 89.24 84.05 89.47C83.99 89.7 83.87 89.99 83.7 90.29L84.46 90.99C84.58 91.05 84.69 91.17 84.81 91.28L83.7 92.91C83.52 92.79 83.29 92.62 83.06 92.44C82.83 92.27 82.65 92.09 82.48 91.97C82.13 92.26 81.78 92.5 81.37 92.61C80.84 92.78 80.32 92.9 79.68 92.9C78.69 92.9 77.93 92.61 77.46 92.08C76.99 91.56 76.76 90.91 76.76 90.15C76.76 89.62 76.88 89.1 77.17 88.57C77.46 88.1 77.93 87.69 78.57 87.34C78.28 86.93 78.1 86.52 77.99 86.23C77.87 85.94 77.81 85.59 77.81 85.3C77.81 84.6 77.99 84.07 78.39 83.61C78.8 83.14 79.38 82.97 80.26 82.97C81.08 82.97 81.72 83.2 82.13 83.61C82.54 84.02 82.71 84.54 82.71 85.13C82.71 85.48 82.65 85.77 82.53 86.06C82.41 86.35 82.24 86.59 82.12 86.82C81.94 86.99 81.65 87.29 81.19 87.64C81.54 88.11 81.95 88.52 82.3 88.92C82.48 88.63 82.59 88.34 82.65 88.04V88.07ZM79.5 88.71C79.21 88.94 79.03 89.18 78.92 89.35C78.8 89.53 78.8 89.7 78.8 89.93C78.8 90.22 78.92 90.51 79.15 90.81C79.38 91.1 79.62 91.16 79.97 91.16C80.32 91.16 80.73 90.98 81.19 90.58C80.78 90.17 80.2 89.53 79.5 88.71ZM80.26 86.38C80.55 86.2 80.73 85.97 80.9 85.74C81.08 85.51 81.13 85.33 81.13 85.1C81.13 84.87 81.07 84.69 80.95 84.57C80.83 84.45 80.66 84.34 80.42 84.34C80.18 84.34 80.01 84.4 79.89 84.57C79.77 84.75 79.71 84.92 79.71 85.15C79.65 85.44 79.89 85.85 80.24 86.38H80.26Z" fill="white"/>
</svg>
