<?xml version="1.0" encoding="UTF-8"?>
<svg id="Layer_1" xmlns="http://www.w3.org/2000/svg" viewBox="0 0 395.68 228.93">
  <polygon points="169.13 109.14 169.13 107.01 144.24 92.63 144.24 123.51 169.13 109.14"
    fill="#72b4e3" stroke-width="0" />
  <polygon points="170.97 17.59 170.97 17.58 169.12 16.51 144.23 30.88 170.97 46.32 170.97 17.59"
    fill="#07426d" stroke-width="0" />
  <polygon points="117.5 108.07 144.24 92.63 117.5 77.2 117.5 108.07" fill="#07426d"
    stroke-width="0" />
  <path d="m144.24,92.63l22.51-13c-.42-.72-.68-1.55-.68-2.44s.26-1.72.67-2.44l-22.51-13v30.88Z"
    fill="#07426d" stroke-width="0" />
  <path d="m166.76,79.64l-22.51,12.99,24.89,14.37v-25.32c-.99-.41-1.84-1.11-2.38-2.04Z"
    fill="#0088ce" stroke-width="0" />
  <polygon points="144.24 123.51 144.24 92.63 117.5 108.07 144.24 123.51" fill="#0088ce"
    stroke-width="0" />
  <path
    d="m190.51,63.77c-.19-.64-.29-1.31-.29-2.01,0-1.37.39-2.63,1.03-3.73l-20.28-11.71v25.99c1.12,0,2.12.41,2.94,1.05l16.6-9.59Z"
    fill="#0088ce" stroke-width="0" />
  <polygon points="144.23 30.88 144.23 61.76 170.97 46.32 144.23 30.88" fill="#0088ce"
    stroke-width="0" />
  <path
    d="m144.23,61.76h0s22.51,13,22.51,13c.85-1.46,2.41-2.45,4.22-2.45,0,0,0,0,0,0v-25.99l-26.74,15.44Z"
    fill="#72b4e3" stroke-width="0" />
  <path d="m227.46,73.39l21.95-12.67-24.94-14.4v25.99c1.14,0,2.16.43,2.99,1.09Z" fill="#72b4e3"
    stroke-width="0" />
  <polygon points="224.47 46.32 251.21 30.88 224.47 15.44 224.47 15.44 224.47 46.32" fill="#0088ce"
    stroke-width="0" />
  <polygon points="224.48 46.32 249.42 60.72 251.22 59.67 251.22 30.88 224.48 46.32" fill="#07426d"
    stroke-width="0" />
  <path
    d="m205.2,61.76c0,.7-.11,1.37-.29,2.01l16.61,9.59c.82-.64,1.82-1.06,2.95-1.06v-25.99l-20.3,11.72c.64,1.1,1.03,2.36,1.03,3.72Z"
    fill="#07426d" stroke-width="0" />
  <rect x="224.44" y="108.06" width="0" height="0"
    transform="translate(19.26 249.32) rotate(-60.26)" fill="#5aadc6" stroke-width="0" />
  <path d="m224.47,82.09s0,0,0,0v25.98l26.72-15.43-22.5-12.99c-.85,1.45-2.41,2.44-4.21,2.44Z"
    fill="#72b4e3" stroke-width="0" />
  <path d="m229.36,77.2c0,.89-.26,1.72-.68,2.44l22.51,13v-28.66l-21.91,12.65c.02.19.08.37.08.57Z"
    fill="#07426d" stroke-width="0" />
  <path
    d="m197.71,69.25c-2.1,0-3.98-.87-5.33-2.27l-16.61,9.59c.03.21.09.41.09.63,0,.89-.26,1.72-.67,2.44l22.52,13v-23.39Z"
    fill="#07426d" stroke-width="0" />
  <polygon
    points="197.71 92.63 197.71 123.51 224.45 108.07 224.45 108.07 224.44 108.07 197.71 92.63"
    fill="#07426d" stroke-width="0" />
  <path d="m175.19,79.63c-.53.92-1.36,1.61-2.34,2.03v25.33l24.86-14.36-22.52-13Z" fill="#0088ce"
    stroke-width="0" />
  <path
    d="m220.25,79.62c-.41-.72-.67-1.54-.67-2.43,0-.22.06-.41.09-.62l-16.63-9.6c-1.35,1.4-3.23,2.27-5.33,2.27v23.39l22.54-13.01Z"
    fill="#72b4e3" stroke-width="0" />
  <path
    d="m220.25,79.63l-22.53,13.01,26.72,15.43h.01s.01.01.01.01h0v-25.99c-1.81,0-3.37-1-4.21-2.46Z"
    fill="#0088ce" stroke-width="0" />
  <polygon points="172.85 106.99 172.85 109.16 197.71 123.51 197.71 92.63 172.85 106.99"
    fill="#72b4e3" stroke-width="0" />
  <path
    d="m193.49,33.32c-.42-.72-.67-1.55-.67-2.44,0-.22.06-.42.09-.63l-21.93-12.66v28.73l22.52-13Z"
    fill="#72b4e3" stroke-width="0" />
  <path
    d="m170.98,46.32l20.27,11.7c1-1.72,2.64-3,4.62-3.5v-19.16c-.99-.42-1.84-1.12-2.38-2.04l-22.51,13Z"
    fill="#07426d" stroke-width="0" />
  <path d="m201.93,28.45c.41.72.67,1.54.67,2.43s-.25,1.71-.67,2.43l22.54,13.01V15.44l-22.54,13.01Z"
    fill="#72b4e3" stroke-width="0" />
  <path
    d="m199.58,35.35v19.19c1.96.51,3.6,1.79,4.59,3.5l20.3-11.72-22.54-13.01c-.53.92-1.37,1.62-2.35,2.04Z"
    fill="#0088ce" stroke-width="0" />
  <path d="m197.71,25.99s.01,0,.02,0V0l-24.89,14.37,21.94,12.66c.82-.63,1.82-1.05,2.93-1.05Z"
    fill="#72b4e3" stroke-width="0" />
  <path d="m201.93,28.45l22.54-13.01h0S197.73,0,197.73,0v25.99c1.81,0,3.36,1,4.21,2.46Z"
    fill="#07426d" stroke-width="0" />
  <g id="Scandinavia_2023">
    <path
      d="m.14,222.38l2.63-1.58c1.85,3.41,3.99,5.11,6.42,5.11,1.04,0,2.01-.24,2.93-.73.91-.48,1.61-1.13,2.08-1.95.48-.81.72-1.68.72-2.59,0-1.04-.35-2.06-1.05-3.05-.97-1.38-2.74-3.03-5.3-4.97-2.58-1.95-4.19-3.36-4.82-4.23-1.09-1.46-1.64-3.04-1.64-4.74,0-1.35.32-2.58.97-3.68.65-1.11,1.55-1.98,2.73-2.62,1.17-.64,2.44-.96,3.82-.96,1.46,0,2.82.36,4.09,1.08s2.61,2.05,4.03,3.99l-2.53,1.92c-1.17-1.54-2.16-2.56-2.98-3.05-.82-.49-1.72-.74-2.68-.74-1.25,0-2.27.38-3.06,1.14-.79.76-1.19,1.69-1.19,2.8,0,.67.14,1.33.42,1.96.28.63.79,1.32,1.54,2.06.41.39,1.74,1.42,4,3.09,2.68,1.98,4.52,3.74,5.51,5.28,1,1.54,1.49,3.09,1.49,4.65,0,2.25-.85,4.2-2.56,5.85-1.7,1.66-3.78,2.48-6.22,2.48-1.88,0-3.59-.5-5.11-1.51-1.53-1-2.94-2.68-4.23-5.04Z"
      fill="#fff" stroke-width="0" />
    <path
      d="m52.5,202.93l-2.44,1.87c-1.35-1.75-2.96-3.08-4.85-3.99-1.89-.9-3.96-1.36-6.22-1.36-2.47,0-4.76.59-6.86,1.78-2.1,1.19-3.74,2.78-4.89,4.78s-1.74,4.25-1.74,6.75c0,3.78,1.29,6.92,3.88,9.45,2.59,2.53,5.85,3.79,9.8,3.79,4.34,0,7.96-1.7,10.88-5.09l2.44,1.85c-1.54,1.97-3.47,3.48-5.78,4.56-2.31,1.07-4.89,1.61-7.74,1.61-5.42,0-9.69-1.8-12.82-5.41-2.62-3.04-3.94-6.72-3.94-11.03,0-4.53,1.59-8.35,4.77-11.44,3.18-3.09,7.16-4.64,11.94-4.64,2.89,0,5.5.57,7.83,1.72,2.33,1.14,4.24,2.75,5.72,4.81Z"
      fill="#fff" stroke-width="0" />
    <path
      d="m70.45,197.18l14.44,30.96h-3.34l-4.87-10.19h-13.34l-4.82,10.19h-3.45l14.63-30.96h.76Zm-.39,6.58l-5.31,11.21h10.59l-5.28-11.21Z"
      fill="#fff" stroke-width="0" />
    <path d="m89.25,228.15v-30.96h.67l20.61,23.73v-23.73h3.05v30.96h-.69l-20.44-23.45v23.45h-3.2Z"
      fill="#fff" stroke-width="0" />
    <path
      d="m121.14,228.15v-30.96h6.42c4.63,0,7.99.37,10.08,1.12,3,1.05,5.35,2.88,7.04,5.47,1.69,2.6,2.54,5.69,2.54,9.28,0,3.1-.67,5.83-2.01,8.19-1.34,2.36-3.08,4.1-5.22,5.22-2.14,1.12-5.14,1.68-9,1.68h-9.85Zm2.97-2.93h3.58c4.28,0,7.25-.27,8.9-.8,2.33-.76,4.16-2.12,5.49-4.09,1.33-1.97,2-4.38,2-7.22,0-2.99-.72-5.54-2.17-7.66-1.45-2.12-3.46-3.57-6.04-4.35-1.94-.59-5.13-.88-9.58-.88h-2.19v25.01Z"
      fill="#fff" stroke-width="0" />
    <path d="m152.99,197.18h3.09v30.96h-3.09v-30.96Z" fill="#fff" stroke-width="0" />
    <path d="m163.43,228.15v-30.96h.67l20.61,23.73v-23.73h3.05v30.96h-.7l-20.44-23.45v23.45h-3.2Z"
      fill="#fff" stroke-width="0" />
    <path
      d="m207.51,197.18l14.44,30.96h-3.34l-4.87-10.19h-13.34l-4.82,10.19h-3.45l14.63-30.96h.76Zm-.39,6.58l-5.31,11.21h10.58l-5.28-11.21Z"
      fill="#fff" stroke-width="0" />
    <path d="m219.99,197.18h3.37l10.26,23.92,10.43-23.92h3.37l-13.47,30.96h-.67l-13.28-30.96Z"
      fill="#fff" stroke-width="0" />
    <path d="m251.72,197.18h3.09v30.96h-3.09v-30.96Z" fill="#fff" stroke-width="0" />
    <path
      d="m274.35,197.18l14.44,30.96h-3.34l-4.87-10.19h-13.34l-4.82,10.19h-3.45l14.63-30.96h.76Zm-.39,6.58l-5.31,11.21h10.58l-5.28-11.21Z"
      fill="#fff" stroke-width="0" />
    <path
      d="m306.74,206.87h-2.97c.08-3.05,1.11-5.56,3.06-7.52,1.96-1.96,4.37-2.94,7.25-2.94s5.15.92,6.91,2.76c1.76,1.84,2.64,4.01,2.64,6.51,0,1.75-.42,3.4-1.26,4.94-.84,1.54-2.47,3.62-4.89,6.24l-7.71,8.3h14.28v2.99h-21.03l11.83-12.78c2.4-2.57,3.96-4.48,4.68-5.72.72-1.24,1.08-2.55,1.08-3.93,0-1.74-.65-3.24-1.95-4.5-1.3-1.26-2.89-1.89-4.77-1.89-1.98,0-3.62.66-4.94,1.98-1.31,1.32-2.06,3.17-2.24,5.56Z"
      fill="#fff" stroke-width="0" />
    <path
      d="m327.27,212.68c0-4.08.44-7.24,1.32-9.47.88-2.23,2.11-3.92,3.71-5.07,1.6-1.15,3.39-1.73,5.37-1.73s3.82.58,5.45,1.74c1.63,1.16,2.92,2.89,3.86,5.21.95,2.32,1.42,5.42,1.42,9.32s-.47,6.98-1.4,9.28-2.22,4.04-3.86,5.21c-1.64,1.17-3.47,1.76-5.47,1.76s-3.76-.57-5.35-1.71c-1.59-1.14-2.82-2.83-3.71-5.08-.89-2.25-1.34-5.41-1.34-9.46Zm2.93.05c0,3.5.31,6.14.94,7.93.62,1.79,1.55,3.15,2.77,4.08,1.22.93,2.51,1.39,3.87,1.39s2.66-.45,3.85-1.36c1.19-.91,2.1-2.26,2.71-4.08.77-2.2,1.16-4.86,1.16-7.96s-.34-5.67-1.03-7.66c-.69-1.99-1.64-3.44-2.85-4.36-1.21-.92-2.49-1.38-3.84-1.38s-2.67.46-3.87,1.38c-1.21.92-2.13,2.27-2.76,4.06-.63,1.79-.95,4.44-.95,7.95Z"
      fill="#fff" stroke-width="0" />
    <path
      d="m354.88,206.87h-2.97c.08-3.05,1.11-5.56,3.06-7.52,1.96-1.96,4.37-2.94,7.25-2.94s5.15.92,6.91,2.76c1.76,1.84,2.64,4.01,2.64,6.51,0,1.75-.42,3.4-1.26,4.94-.84,1.54-2.47,3.62-4.89,6.24l-7.71,8.3h14.28v2.99h-21.03l11.83-12.78c2.4-2.57,3.96-4.48,4.68-5.72s1.08-2.55,1.08-3.93c0-1.74-.65-3.24-1.95-4.5-1.3-1.26-2.89-1.89-4.77-1.89-1.98,0-3.62.66-4.94,1.98-1.31,1.32-2.06,3.17-2.24,5.56Z"
      fill="#fff" stroke-width="0" />
    <path
      d="m379.16,204.36h-3.16c.57-2.55,1.68-4.52,3.3-5.89,1.63-1.38,3.55-2.06,5.77-2.06,1.61,0,3.12.37,4.51,1.11,1.4.74,2.48,1.73,3.24,2.98.77,1.25,1.15,2.55,1.15,3.92,0,2.67-1.33,4.78-3.98,6.33,1.49.6,2.71,1.49,3.66,2.65,1.35,1.64,2.02,3.48,2.02,5.51,0,1.75-.46,3.43-1.39,5.02s-2.19,2.82-3.79,3.69-3.39,1.31-5.37,1.31c-2.67,0-4.89-.77-6.67-2.31-1.78-1.54-2.95-3.79-3.49-6.77h3.03c.53,2.01,1.3,3.46,2.29,4.36,1.28,1.14,2.9,1.71,4.88,1.71,2.24,0,4.05-.67,5.41-2.02,1.36-1.35,2.04-2.93,2.04-4.74,0-1.21-.34-2.34-1.02-3.39-.68-1.05-1.59-1.85-2.74-2.38-1.14-.53-2.92-.86-5.31-.99v-2.84c1.42,0,2.71-.25,3.87-.75,1.16-.5,2.01-1.13,2.54-1.9s.79-1.61.79-2.53c0-1.35-.54-2.51-1.61-3.49-1.07-.98-2.43-1.47-4.07-1.47-1.33,0-2.48.38-3.45,1.13-.97.75-1.79,2.02-2.46,3.82Z"
      fill="#fff" stroke-width="0" />
  </g>
  <path
    d="m34.36,162.38c-2.71-1.38-7.21-2.75-13.48-4.1-2.53-.53-4.14-1.1-4.82-1.71-.7-.59-1.05-1.26-1.05-2,0-1.01.42-1.87,1.27-2.58.84-.71,2.1-1.06,3.77-1.06,2.03,0,3.62.48,4.77,1.43,1.15.95,1.91,2.47,2.27,4.56l13.53-.79c-.59-4.82-2.44-8.33-5.56-10.53-3.12-2.21-7.64-3.31-13.58-3.31-4.84,0-8.64.61-11.42,1.82-2.78,1.21-4.86,2.88-6.24,5.01-1.38,2.12-2.08,4.38-2.08,6.76,0,3.63,1.35,6.62,4.06,8.97,2.68,2.34,7.17,4.22,13.47,5.64,3.84.85,6.29,1.74,7.35,2.69,1.06.95,1.58,2.03,1.58,3.23,0,1.27-.55,2.38-1.66,3.34-1.11.96-2.69,1.44-4.74,1.44-2.75,0-4.86-.94-6.34-2.82-.91-1.16-1.51-2.85-1.81-5.07l-13.66.86c.4,4.69,2.12,8.55,5.16,11.6,3.04,3.04,8.51,4.56,16.41,4.56,4.5,0,8.23-.65,11.18-1.95,2.96-1.3,5.26-3.21,6.91-5.72,1.65-2.51,2.47-5.26,2.47-8.24,0-2.53-.62-4.83-1.85-6.88-1.24-2.05-3.21-3.77-5.92-5.15Z"
    fill="#fff" stroke-width="0" />
  <rect x="47.65" y="143.07" width="14.38" height="46.45" fill="#fff" stroke-width="0" />
  <path
    d="m93.14,172.69h9.6v4.37c-1.88,1.12-3.55,1.91-5.01,2.38-1.46.46-2.99.7-4.59.7-3.38,0-6.01-1.08-7.9-3.23-1.89-2.15-2.84-5.75-2.84-10.77,0-4.73.93-8.19,2.8-10.38,1.87-2.19,4.38-3.28,7.53-3.28,2.11,0,3.85.46,5.21,1.39,1.36.93,2.33,2.27,2.9,4.02l13.85-2.47c-.85-3-2.11-5.48-3.79-7.43-1.68-1.95-3.79-3.4-6.34-4.33-2.55-.93-6.38-1.39-11.52-1.39s-9.56.75-12.71,2.25c-4.03,1.94-7.1,4.79-9.19,8.54-2.09,3.75-3.14,8.16-3.14,13.23s.96,9.08,2.87,12.8c1.91,3.72,4.61,6.52,8.08,8.4,3.47,1.88,7.97,2.82,13.48,2.82,4.48,0,8.35-.52,11.61-1.57,3.26-1.05,7.02-3.02,11.26-5.91v-19.8h-22.18v9.66Z"
    fill="#fff" stroke-width="0" />
  <path
    d="m158.61,166.94c0-6.25,3.13-11.76,7.89-15.07v-8.8h-13.53v25.7l-17.49-25.7h-13.4v46.45h13.5v-25.5l17.4,25.5h13.53v-7.5c-4.77-3.32-7.89-8.83-7.89-15.07Z"
    fill="#fff" stroke-width="0" />
  <path
    d="m212.39,143.07h-23.86v9.62c4.14,3.37,6.8,8.5,6.8,14.25s-2.65,10.89-6.8,14.25v8.32h14.42v-17.24h7.86c5.79,0,10.09-1.32,12.91-3.96,2.82-2.64,4.23-6.31,4.23-10.99s-1.29-8.08-3.88-10.55c-2.59-2.47-6.48-3.71-11.68-3.71Zm-.09,18.36c-1.12.96-3.06,1.44-5.83,1.44h-3.52v-10.36h4.09c2.68,0,4.51.51,5.48,1.52.97,1.01,1.46,2.25,1.46,3.71s-.56,2.73-1.68,3.69Z"
    fill="#fff" stroke-width="0" />
  <path
    d="m269.06,173.17c-1-1.25-1.77-2.06-2.3-2.44-.78-.57-2.03-1.14-3.74-1.71,2.13-.49,3.82-1.1,5.04-1.84,1.92-1.16,3.43-2.68,4.53-4.55,1.1-1.87,1.65-4.09,1.65-6.67,0-2.96-.72-5.47-2.15-7.52-1.44-2.06-3.33-3.47-5.67-4.23-2.34-.76-5.73-1.14-10.17-1.14h-23.92v46.45h14.42v-18.85h1.27c1.31,0,2.48.36,3.52,1.08.76.55,1.63,1.74,2.6,3.58l7.67,14.19h16.22l-6.95-13.46c-.34-.68-1.01-1.64-2.01-2.89Zm-10.13-13.37c-.6.78-1.38,1.27-2.33,1.46-1.88.42-3.15.63-3.8.63h-6.05v-9.44h6.3c2.62,0,4.4.4,5.36,1.2.95.8,1.43,1.95,1.43,3.45,0,1.01-.3,1.91-.9,2.69Z"
    fill="#fff" stroke-width="0" />
  <rect x="281.24" y="143.07" width="14.38" height="46.45" fill="#fff" stroke-width="0" />
  <polygon
    points="334.51 168.76 317.02 143.07 303.62 143.07 303.62 189.52 317.12 189.52 317.12 164.01 334.51 189.52 348.04 189.52 348.04 143.07 334.51 143.07 334.51 168.76"
    fill="#fff" stroke-width="0" />
  <polygon
    points="351.81 143.07 351.81 154.54 366.45 154.54 366.45 189.52 380.8 189.52 380.8 154.54 395.44 154.54 395.44 143.07 351.81 143.07"
    fill="#fff" stroke-width="0" />
  <path
    d="m183.31,166.51l4.79,1.07c-.25.88-.49,1.59-.72,2.12-.23.53-.56,1.16-.98,1.88l2.31,1.58c.28.18.64.4,1.08.65l-3.3,3.8c-.6-.32-1.23-.69-1.88-1.11-.65-.42-1.23-.78-1.74-1.08-1.06.7-2.13,1.22-3.19,1.54-1.48.44-3.15.66-5.03.66-2.94,0-5.13-.61-6.57-1.84-1.44-1.22-2.15-2.71-2.15-4.46,0-1.25.42-2.44,1.27-3.56.84-1.12,2.22-2.07,4.14-2.84-.8-.97-1.36-1.82-1.66-2.54-.3-.72-.45-1.45-.45-2.19,0-1.57.6-2.86,1.79-3.87,1.19-1.01,3.01-1.52,5.44-1.52s4.3.48,5.47,1.45c1.16.96,1.75,2.12,1.75,3.47,0,.75-.18,1.48-.53,2.17-.36.69-.79,1.25-1.29,1.69-.5.43-1.4,1.07-2.7,1.93,1.07,1.07,2.19,2.07,3.36,3,.31-.62.58-1.28.8-1.97Zm-9.23,1.49c-.84.59-1.4,1.1-1.68,1.52-.28.42-.41.87-.41,1.34,0,.73.32,1.39.95,1.96.63.57,1.46.86,2.47.86,1.09,0,2.32-.43,3.69-1.28-1.31-1-2.98-2.47-5.02-4.4Zm2.18-5.36c.79-.43,1.41-.9,1.84-1.41.43-.51.65-.99.65-1.44s-.18-.87-.54-1.2-.86-.49-1.49-.49-1.13.18-1.52.54-.59.79-.59,1.28c0,.62.55,1.53,1.66,2.71Z"
    fill="#fff" stroke-width="0" />
</svg>